<?xml version="1.0" encoding="utf-8"?>
<!-- Generator: Adobe Illustrator 16.0.0, SVG Export Plug-In . SVG Version: 6.00 Build 0)  -->
<!DOCTYPE svg PUBLIC "-//W3C//DTD SVG 1.1//EN" "http://www.w3.org/Graphics/SVG/1.1/DTD/svg11.dtd">
<svg version="1.1" id="Layer_1" xmlns="http://www.w3.org/2000/svg" xmlns:xlink="http://www.w3.org/1999/xlink" x="0px" y="0px"
	 width="700px" height="700px" viewBox="0 0 700 700" enable-background="new 0 0 700 700" xml:space="preserve">
<g>
	<path fill="#CA6F83" d="M653.597,237.208c0.407-0.816,0.814-1.632,1.223-2.447C654.412,235.578,654.004,236.393,653.597,237.208"/>
	<path fill="#CA6F83" d="M653.673,242.325c-0.215-0.906-0.429-1.812-0.645-2.717C653.244,240.515,653.458,241.42,653.673,242.325"/>
	<path fill="#CB2026" d="M653.672,242.325c-0.213-0.905-0.428-1.812-0.644-2.717c0.189-0.798-7.727-14.636-10.823-20.912
		c-8.952-19.807-16.653-40.193-29.32-58.215c-5.258-7.48-32.414-40.606-33.272-43.481c-3.752-12.564-66.715-52.526-90.79-60.997
		c-21.157-7.442-42.808-12.719-64.671-17.218c-14.252-2.935-28.597-5.875-43.038-7.265c-15.813-1.521-31.609-2.98-47.707-2.388
		c-15.421,0.57-31.041,0.146-46.551-0.127c-20.404-0.361-38.256,8.405-56.811,13.958c-10.589,3.168-22.77,5.065-31.462,13.33
		c-9.44,8.977-22.033,12.621-32.606,19.721c-9.668,6.496-20.198,11.72-30.346,17.503c-11.706,2.197-18.85,11.501-27.493,18.168
		c-18.52,14.281-31.864,32.833-40.743,54.526c-3.699,5.19-13.184,21.077-15.285,23.246c-2.827,5.605-6.432,10.958-8.309,16.867
		c-3.426,10.797-8.023,20.72-13.57,30.744C15.062,264.464-2.986,344.601,13.605,404.612c1.414,5.112-1.812,11.175,1.037,16.838
		c5.352,10.648,16.155,56.03,16.896,62.117c1.076,8.83,3.598,37.253,25.716,65.874c3.52,4.555,27.293,51.614,72.317,81.686
		c54.173,36.185,107.168,30.213,117.353,12.255c26.56-46.838-55.3-47.847-71.604-55.738
		C41.596,522.916,39.16,324.392,67.307,256.865c9.422-22.605,30.451-132.642,175.945-163.348
		c320.68-67.68,377.529,199.906,382.667,198.84c7.573-1.572,3.032,7.596,7.312,12.939c6.232,7.777,12.969,8.026,19.705,1.584
		c3.528-3.375,6.272-2.825,8.955,0.021c8.21,8.712,12.711,4.839,15.92-4.238C671.995,281.672,664.497,261.344,653.672,242.325"/>
	<path d="M86.074,316.146c0,0,22.156,25.157,23.842,76.537c1.135,34.594-3.518,58.711-3.518,58.711l445.365,36.04
		c0,0-12.456-23.376,28.075-41.995c23.378-10.739,54.184-27.781,54.184-27.781C478.316,395.713,214.299,347.86,181.91,341.62
		C131.098,331.832,86.074,316.146,86.074,316.146"/>
	<path fill="#CB2026" d="M550,477.527l-440.44-55.146c0,0-0.905,17.433-3.162,29.014l445.364,36.041
		C550.063,484.473,550,477.527,550,477.527"/>
	<path fill="#FFFFFF" d="M616.276,427.027l-507.13-78.775c-2.762-3.254-10.198-20.637-10.198-20.637
		c144.95,37.083,526.97,94.457,526.97,94.457L616.276,427.027z"/>
	<polygon points="492.521,352.902 432.707,341.688 439.381,295.96 499.549,304.741 	"/>
	<rect x="440.938" y="286.025" transform="matrix(0.9895 0.1444 -0.1444 0.9895 46.7798 -65.0265)" width="60.807" height="7.434"/>
	<rect x="442.617" y="274.861" transform="matrix(0.9895 0.1444 -0.1444 0.9895 45.1232 -65.3905)" width="60.807" height="6.573"/>
	<path d="M180.401,343.647c-0.101,0-0.203,0-0.339-0.034c-1.254-0.17-2.133-1.355-1.931-2.608l18.698-128.243
		c0.168-1.151,1.152-1.964,2.27-1.964c0.102,0,0.203,0,0.338,0.034c1.253,0.17,2.134,1.355,1.931,2.608l-18.697,128.242
		C182.501,342.834,181.519,343.647,180.401,343.647"/>
	<path d="M194.56,260.861c-0.507,0-1.016-0.169-1.422-0.475c-0.644-0.541-0.982-1.354-0.848-2.167l3.558-24.354
		c0.169-1.152,1.117-1.964,2.269-1.964h0.204l46.507,4.2c1.05,0.101,1.931,0.915,2.066,1.965c0.17,1.049-0.406,2.065-1.422,2.472
		l-50.064,20.155C195.136,260.794,194.864,260.861,194.56,260.861 M200.081,236.71l-2.642,18.224l37.429-15.107L200.081,236.71z"/>
	<path d="M192.73,259.032c-0.373,0-0.745-0.101-1.083-0.271c0,0-8.265-4.37-16.971-9.179c-10.331-5.758-21.137-17.614-21.61-18.123
		c-0.611-0.711-0.746-1.761-0.34-2.608c0.407-0.779,1.186-1.253,2.066-1.253h0.237l43.324,4.302
		c0.643,0.068,1.253,0.406,1.625,0.982c0.408,0.542,0.542,1.22,0.373,1.864l-5.386,22.525c-0.169,0.678-0.644,1.253-1.287,1.558
		C193.375,258.965,193.07,259.032,192.73,259.032 M160.856,232.814c4.032,3.929,10.23,9.484,16.056,12.703
		c5.657,3.15,11.144,6.098,14.26,7.791l4.099-17.072L160.856,232.814z"/>
	<path d="M108.692,328.404L107.336,324c0.271-0.101,28.521-8.942,49.387-27.979c20.934-19.171,31.638-38.954,31.739-39.157
		l4.065,2.168c-0.439,0.847-11.144,20.662-32.687,40.376C138.195,319.191,109.877,328.031,108.692,328.404"/>
	<path d="M244.929,358.145c-1.22-0.576-30.113-14.633-46.305-51.657c-12.567-28.758-5.454-70.658-5.148-72.454l4.538,0.813
		c-0.067,0.406-7.18,42.341,4.811,69.812c15.514,35.363,43.798,49.217,44.069,49.354L244.929,358.145z"/>
	<path d="M310.47,331.274l-28.228,29.694l71.595,13.92c14.06-11.146,21.852-39.158,21.852-39.158L310.47,331.274z M292.283,356.437
		l18.363-20.217c0.393-0.432,0.974-0.64,1.552-0.556l11.567,1.688c0.438,0.064,0.656,0.565,0.406,0.93l-15.226,22.101
		c-0.153,0.222-0.423,0.332-0.687,0.278l-15.63-3.165C292.142,357.396,291.948,356.805,292.283,356.437 M314.569,360.856
		l14.846-22.122c0.208-0.311,0.577-0.474,0.946-0.42l16.545,2.414c0.424,0.062,0.649,0.534,0.432,0.904l-14.223,24.127
		c-0.227,0.382-0.676,0.57-1.105,0.462l-17.013-4.255C314.508,361.845,314.289,361.274,314.569,360.856 M338.359,365.986
		l14.137-23.764c0.224-0.378,0.654-0.582,1.089-0.519l14.426,2.104c0.469,0.068,0.724,0.582,0.494,0.996l-13.619,24.682
		c-0.211,0.384-0.645,0.59-1.075,0.513l-14.825-2.642C338.355,367.246,338.031,366.537,338.359,365.986"/>
	<path d="M375.688,335.73c0,0-12.915,29.356-20.256,37.798l167.517,27.92l7.553-34.963L375.688,335.73z M415.472,348.758
		l14.316,2.844l-3.387,18.262l-14.31-2.879L415.472,348.758z M410.782,366.722l-14.755-3.184l3.684-17.912l14.451,2.871
		L410.782,366.722z M431.099,351.862l13.214,2.625l-3.393,18.297l-13.208-2.657L431.099,351.862z M445.624,354.748l13.122,2.607
		l-3.398,18.33l-13.117-2.638L445.624,354.748z M460.057,357.616l13.694,2.721l-3.405,18.365l-13.688-2.753L460.057,357.616z
		 M475.062,360.598l15.753,3.13l-3.414,18.407l-15.744-3.169L475.062,360.598z M492.124,363.988l15.912,3.161l-3.42,18.448
		l-15.905-3.199L492.124,363.988z M382.45,355.494l2.538-12.793l12.586,2.5l-3.372,18.184l-7.261-1.46
		C383.89,361.318,381.867,358.425,382.45,355.494 M514.565,387.599l-8.64-1.737l3.422-18.452l14.156,2.813l-1.88,13.08
		C521.042,386.232,517.617,388.204,514.565,387.599"/>
	
		<line fill="none" stroke="#000000" stroke-width="0.059" stroke-linejoin="round" stroke-miterlimit="10" x1="522.152" y1="395.314" x2="626.045" y2="410.477"/>
	
		<line fill="none" stroke="#000000" stroke-width="0.04" stroke-linejoin="round" stroke-miterlimit="10" x1="530.253" y1="390.554" x2="528.718" y2="401.077"/>
	
		<line fill="none" stroke="#000000" stroke-width="0.04" stroke-linejoin="round" stroke-miterlimit="10" x1="540.832" y1="392.098" x2="539.296" y2="402.62"/>
	
		<line fill="none" stroke="#000000" stroke-width="0.04" stroke-linejoin="round" stroke-miterlimit="10" x1="552.731" y1="393.835" x2="551.196" y2="404.356"/>
	
		<line fill="none" stroke="#000000" stroke-width="0.04" stroke-linejoin="round" stroke-miterlimit="10" x1="564.723" y1="395.584" x2="563.187" y2="406.107"/>
	
		<line fill="none" stroke="#000000" stroke-width="0.04" stroke-linejoin="round" stroke-miterlimit="10" x1="574.948" y1="397.076" x2="573.413" y2="407.6"/>
	
		<line fill="none" stroke="#000000" stroke-width="0.04" stroke-linejoin="round" stroke-miterlimit="10" x1="585.789" y1="398.659" x2="584.254" y2="409.181"/>
	
		<line fill="none" stroke="#000000" stroke-width="0.04" stroke-linejoin="round" stroke-miterlimit="10" x1="597.249" y1="400.331" x2="595.714" y2="410.853"/>
	
		<line fill="none" stroke="#000000" stroke-width="0.04" stroke-linejoin="round" stroke-miterlimit="10" x1="608.709" y1="402.003" x2="607.174" y2="412.526"/>
	
		<line fill="none" stroke="#000000" stroke-width="0.04" stroke-linejoin="round" stroke-miterlimit="10" x1="618.406" y1="403.418" x2="616.871" y2="413.94"/>
	<path d="M625.187,418.201c-0.103,0-0.17,0-0.271-0.034l-102.229-14.972c-0.475-0.067-0.915-0.338-1.186-0.744
		c-0.306-0.407-0.407-0.915-0.306-1.389l2.506-11.585c0.204-0.849,0.915-1.423,1.762-1.423c0.101,0,0.204,0,0.271,0.034
		l101.213,16.225c0.981,0.135,1.625,1.05,1.49,2.033l-1.49,10.33c-0.068,0.44-0.306,0.881-0.679,1.152
		C625.931,418.065,625.559,418.201,625.187,418.201 M525.125,399.943l98.536,14.43l0.983-6.808l-97.792-15.683L525.125,399.943z"/>
	<path fill="#CB2026" d="M61.935,486.313c111.639-59.605,243.482-13.24,361.029-0.799c68.567,7.257,170.803,24.778,231.96-17.915
		c11.67-8.146,0.549-27.464-11.242-19.232c-92.336,64.46-269.605,3.332-369.97-8.454c-76.252-8.955-154.107-9.625-223.019,27.168
		C38.042,473.834,49.282,493.068,61.935,486.313"/>
	<path fill="#CB2026" d="M64.517,520.807c111.639-59.605,243.482-13.24,361.028-0.8c68.567,7.257,170.805,24.779,231.961-17.914
		c11.669-8.146,0.549-27.465-11.243-19.232c-92.335,64.458-269.604,3.331-369.969-8.454c-76.252-8.956-154.106-9.627-223.019,27.167
		C40.624,508.327,51.863,527.563,64.517,520.807"/>
	<path fill="#CB2026" d="M84.172,544.187c107.683-54.865,248.769,2.236,362.354,12.382c62.955,5.624,152.801,15.412,208.294-24.421
		c11.542-8.285,3.119-23.175-8.557-14.794c-79.848,57.314-246.128,11.534-333.417-2.517
		c-80.83-13.011-164.708-28.203-239.916,10.116C60.154,531.462,71.413,550.687,84.172,544.187"/>
	<path fill="#CB2026" d="M625.377,552.685C448.87,512.642,259.138,642.34,95.819,520.737c-11.516-8.574-22.785,10.926-11.243,19.232
		c165.224,118.914,355.496-6.503,534.879,34.193C633.413,577.329,639.372,555.859,625.377,552.685"/>
	<path fill="#CB2026" d="M571.209,600.896c-71.283-58.747-164.711,1.669-244.406-26.215c-13.558-4.744-22.949,13.752-9.325,17.979
		c74.488,23.113,175.139-27.804,237.981,23.985C566.439,625.694,582.284,610.022,571.209,600.896"/>
	<path fill="#ED1C24" d="M626.046,285.79c7.573-1.572,3.697,9.595,7.977,14.938c6.23,7.777,12.176,12.595,18.913,6.152
		c3.529-3.375,6.273-2.825,8.956,0.022c8.209,8.711,12.709,4.84,15.917-4.239c8.977,21.23,9.007,44.183,12.822,66.368
		c3.889,22.599,2.422,45.463-0.232,68.172c-0.647,5.545-1.215,11.067,0.206,16.674c2.566,10.118-3.758,15.042-6.964,24.445
		c-4.47,13.116-4.425,21.691-11.223,34.179c-2.934,5.389-6.994,14.858-13.633,21.215c-1.907,1.825-4.403,4.307-6.268,6.816
		c-8.811,11.864-16.357,24.914-26.512,35.474c-17.327,18.017-23.876,39.769-68.395,64.771
		c-54.173,29.172-123.196,31.447-163.121,29.848c56.531-13.12,104.29-17.989,156.884-47.558
		c50.646-28.474,71.218-75.006,89.019-110.874c11.563-23.299,9.102-69.209,12.637-94.938c4.678-34.043-15.753-92.906-19.007-104.465
		S620.907,286.857,626.046,285.79"/>
</g>
</svg>
